<?xml version="1.0" encoding="UTF-8"?>
<svg xmlns="http://www.w3.org/2000/svg" xmlns:xlink="http://www.w3.org/1999/xlink" width="159.60748" height="159.60748" id="svg1968" version="1.0">
    <defs id="defs1970">
        <linearGradient id="linearGradient2055">
            <stop style="stop-color:#eeeeec;stop-opacity:1;" offset="0" id="stop2057" />
            <stop style="stop-color:#eeeeec;stop-opacity:0;" offset="1" id="stop2059" />
        </linearGradient>
        <linearGradient xlink:href="#linearGradient2055" id="linearGradient2061" x1="414.44666" y1="535.74768" x2="417.98221" y2="602.92285" gradientUnits="userSpaceOnUse" />
        <linearGradient id="linearGradient2063">
            <stop style="stop-color:#eeeeec;stop-opacity:1;" offset="0" id="stop2065" />
            <stop style="stop-color:#eeeeec;stop-opacity:0;" offset="1" id="stop2067" />
        </linearGradient>
        <linearGradient xlink:href="#linearGradient2063" id="linearGradient2069" x1="470.51016" y1="698.3822" x2="471.52029" y2="609.9939" gradientUnits="userSpaceOnUse" />
    </defs>
    <g id="layer1" transform="translate(-394.8348,-342.3994)">
        <g transform="matrix(0.9,0,0,0.9,72.7396,-118.4149)" id="g2084">
            <path transform="matrix(0.306862,0,0,0.306862,328.6317,428.9959)" d="M 634.28571 559.50507 A 250 250 0 1 1  134.28571,559.50507 A 250 250 0 1 1  634.28571 559.50507 z" id="path1954" style="fill:#8ae234;fill-opacity:1;fill-rule:evenodd;stroke:#73d216;stroke-width:20.127882;stroke-linecap:butt;stroke-linejoin:miter;marker-start:none;marker-mid:none;marker-end:none;stroke-miterlimit:4;stroke-dasharray:none;stroke-dashoffset:0;stroke-opacity:1" />
            <path id="path1956" d="M 465.20401,668.93136 C 484.25065,663.82784 499.37724,651.27316 508.43271,635.10742 C 523.1404,600.28933 468.2659,681.80733 422.94143,666.99805 C 436.11746,671.83026 450.75472,672.80304 465.20401,668.93136 z " style="fill:url(#linearGradient2069);fill-opacity:1;fill-rule:evenodd;stroke:none;stroke-width:0;stroke-miterlimit:4;stroke-dasharray:none;stroke-dashoffset:0;stroke-opacity:1" />
            <path style="fill:url(#linearGradient2061);fill-opacity:1;fill-rule:evenodd;stroke:none;stroke-width:0;stroke-miterlimit:4;stroke-dasharray:none;stroke-dashoffset:0;stroke-opacity:1" d="M 446.67133,529.36222 C 407.23429,529.36222 375.22913,562.20957 375.22913,602.68438 C 375.22913,608.15829 375.83658,613.48618 376.94663,618.61875 C 416.15174,543.15095 458.39222,590.65582 512.85368,575.07214 C 502.21825,548.27438 476.58935,529.36222 446.67133,529.36222 z " id="path1958" />
        </g>
    </g>
</svg>