<?xml version="1.0" encoding="UTF-8"?>
<svg xmlns="http://www.w3.org/2000/svg" xmlns:xlink="http://www.w3.org/1999/xlink" width="128" height="128" id="svg2" version="1.1">
    <defs id="defs4">
        <linearGradient id="linearGradient3953">
            <stop style="stop-color:#ffffff;stop-opacity:1;" offset="0" id="stop3955" />
            <stop style="stop-color:#ffffff;stop-opacity:0;" offset="1" id="stop3957" />
        </linearGradient>
        <linearGradient id="linearGradient3927">
            <stop style="stop-color:#ffffff;stop-opacity:1;" offset="0" id="stop3929" />
            <stop style="stop-color:#ffffff;stop-opacity:0;" offset="1" id="stop3931" />
        </linearGradient>
        <linearGradient id="linearGradient3871">
            <stop style="stop-color:#00aa00;stop-opacity:1;" offset="0" id="stop3873" />
            <stop id="stop3879" offset="0.29523575" style="stop-color:#00ff00;stop-opacity:1" />
            <stop style="stop-color:#d5ffd5;stop-opacity:1" offset="1" id="stop3875" />
        </linearGradient>
        <linearGradient xlink:href="#linearGradient3871" id="linearGradient3877" x1="8" y1="73.737183" x2="86.24353" y2="2.4637082" gradientUnits="userSpaceOnUse" />
        <linearGradient xlink:href="#linearGradient3871" id="linearGradient3924" gradientUnits="userSpaceOnUse" x1="8" y1="73.737183" x2="86.24353" y2="2.4637082" />
        <linearGradient xlink:href="#linearGradient3927" id="linearGradient3933" x1="47.125" y1="4.515625" x2="47.125" y2="79.831711" gradientUnits="userSpaceOnUse" />
        <linearGradient xlink:href="#linearGradient3927" id="linearGradient3947" gradientUnits="userSpaceOnUse" x1="47.125" y1="4.515625" x2="47.125" y2="79.831711" />
        <linearGradient xlink:href="#linearGradient3927" id="linearGradient3951" gradientUnits="userSpaceOnUse" x1="47.125" y1="4.515625" x2="47.125" y2="79.831711" />
        <linearGradient xlink:href="#linearGradient3953" id="linearGradient3959" x1="47.125" y1="4.515625" x2="60.753372" y2="59.765625" gradientUnits="userSpaceOnUse" />
        <linearGradient xlink:href="#linearGradient3871" id="linearGradient3982" gradientUnits="userSpaceOnUse" x1="8" y1="73.737183" x2="86.24353" y2="2.4637082" />
        <linearGradient xlink:href="#linearGradient3927" id="linearGradient3984" gradientUnits="userSpaceOnUse" x1="47.125" y1="4.515625" x2="47.125" y2="79.831711" />
        <linearGradient xlink:href="#linearGradient3953" id="linearGradient3986" gradientUnits="userSpaceOnUse" x1="47.125" y1="4.515625" x2="60.753372" y2="59.765625" />
    </defs>
    <g id="layer1" transform="translate(0,-924.36217)">
        <g id="g3977" transform="matrix(1.8812515,0,0,1.8812515,-10.224935,899.05489)">
            <path style="opacity:0.65158374;fill:#000000;fill-opacity:1;stroke:none;" d="m 20,42.362183 10,10 30,-30 10,10 -40,40 -20,-20 z" id="path3881" />
            <path id="path2996" d="m 20,42.362183 10,10 30,-30 10,10 -40,40 -20,-20 z" style="fill:url(#linearGradient3982);fill-opacity:1;stroke:none" />
            <path d="M 60,23.5 32.65625,50.84375 c 0.663739,-0.129711 1.331286,-0.255418 2,-0.375 3.364578,-0.601669 7.526087,-1.246737 10.90625,-1.6875 2.645343,-0.344944 5.103246,-0.59175 7.65625,-0.75 L 68.875,32.375 60,23.5 z m -40,20 -8.875,8.875 3.15625,3.15625 C 18.877656,54.179274 23.499328,52.749738 28.25,51.75 L 20,43.5 z" id="path3949" style="fill:url(#linearGradient3984);fill-opacity:1;stroke:url(#linearGradient3986);stroke-width:0.26578051;" />
        </g>
    </g>
</svg>