<?xml version="1.0" encoding="UTF-8"?>
<svg xmlns="http://www.w3.org/2000/svg" xmlns:xlink="http://www.w3.org/1999/xlink" width="36.000000px" height="36.000000px" id="svg2" version="1.1">
    <defs id="defs4">
        <linearGradient id="linearGradient3776">
            <stop id="stop3778" offset="0.0000000" style="stop-color:#ffa5a5;stop-opacity:1" />
            <stop id="stop3780" offset="1.0000000" style="stop-color:#bc1414;stop-opacity:0" />
        </linearGradient>
        <linearGradient id="linearGradient1365">
            <stop id="stop1367" offset="0.0000000" style="stop-color:#f00a0a;stop-opacity:1" />
            <stop id="stop1370" offset="1.0000000" style="stop-color:#640000;stop-opacity:1" />
        </linearGradient>
        <linearGradient id="linearGradient1352">
            <stop style="stop-color:#980707;stop-opacity:1" offset="0.0000000" id="stop1354" />
            <stop style="stop-color:#510202;stop-opacity:1" offset="1.0000000" id="stop1356" />
        </linearGradient>
        <linearGradient xlink:href="#linearGradient3776" id="linearGradient3000" gradientUnits="userSpaceOnUse" gradientTransform="matrix(0.58147,-0.58147,0.58147,0.58147,-19.214087,18)" x1="32.682953" y1="19.206007" x2="27.468960" y2="49.282398" />
        <linearGradient xlink:href="#linearGradient1365" id="linearGradient3003" gradientUnits="userSpaceOnUse" gradientTransform="matrix(0.58147,-0.58147,0.58147,0.58147,-19.209158,18)" x1="36.463844" y1="6.1829467" x2="27.573986" y2="57.789398" />
        <linearGradient xlink:href="#linearGradient1352" id="linearGradient3006" gradientUnits="userSpaceOnUse" gradientTransform="matrix(0.58147,-0.58147,0.58147,0.58147,-19.214609,18.00115)" x1="36.304314" y1="6.2060790" x2="27.493591" y2="57.587868" />
    </defs>
    <g id="layer1">
        <path style="fill:url(#linearGradient3006);fill-opacity:1;stroke:none" d="m 0.500567,21.392081 c 0.05084,0.542535 0.508712,0.955739 1.0536,0.950811 l 12.103565,0 8.685785,1e-6 12.103563,-1e-6 c 0.279833,0.0013 0.548584,-0.109269 0.746458,-0.307143 0.197874,-0.197874 0.308456,-0.466625 0.307143,-0.746457 l 0,-6.578583 c 0.0013,-0.279833 -0.109269,-0.548584 -0.307143,-0.746458 -0.197874,-0.197874 -0.466625,-0.308457 -0.746458,-0.307143 l -12.103563,-10e-7 -8.685785,10e-7 -12.103565,0 c -0.279832,-0.0013 -0.548583,0.109269 -0.746457,0.307143 -0.197874,0.197874 -0.308456,0.466625 -0.307144,0.746458 l 0,6.578583 c -0.0017,0.03424 -0.0017,0.06855 1e-6,0.102789 z" id="path1349" />
        <path style="fill:url(#linearGradient3003);fill-opacity:1;stroke:none" d="m 1.429756,14.873861 c -0.0867,0.148461 -0.129227,0.318581 -0.122593,0.490375 l 0,5.271528 c 0.0023,0.495541 0.403479,0.896677 0.89902,0.899021 l 12.259369,0 7.069569,0 12.259369,0 c 0.495541,-0.0023 0.896676,-0.40348 0.89902,-0.899021 l 0,-5.271528 c -0.0023,-0.495541 -0.40348,-0.896677 -0.89902,-0.899021 l -12.259369,0 -7.069569,0 -12.259369,0 c -0.312027,-0.0071 -0.605595,0.147444 -0.776427,0.408646 z" id="path1468" />
        <path style="fill:url(#linearGradient3000);fill-opacity:1;stroke:none" d="m 1.981092,15.262074 c -0.01422,0.03214 -0.0212,0.06702 -0.02043,0.102162 l 0,5.271528 c 0.0021,0.04384 0.01627,0.08624 0.04087,0.122594 0.02273,0.04375 0.05841,0.07943 0.102161,0.102161 0.03214,0.01422 0.06702,0.0212 0.102162,0.02043 l 31.588308,-8e-6 c 0.04384,-0.0021 0.08624,-0.01627 0.122594,-0.04087 0.04375,-0.02273 0.07943,-0.05841 0.102162,-0.102161 0.01422,-0.03214 0.0212,-0.06702 0.02043,-0.102162 l 0,-5.271528 c -0.0021,-0.04384 -0.01627,-0.08624 -0.04087,-0.122594 -0.02273,-0.04375 -0.05841,-0.07943 -0.102161,-0.102161 -0.03214,-0.01422 -0.06702,-0.0212 -0.102162,-0.02043 l -12.504556,0 -0.417216,0.01251 -5.761906,8e-6 -0.400074,-0.01251 -12.504556,0 c -0.04384,0.0021 -0.08624,0.01627 -0.122594,0.04087 -0.04376,0.02273 -0.07943,0.05841 -0.102162,0.102161 z" id="path1472" />
    </g>
</svg>